<svg xmlns="http://www.w3.org/2000/svg" viewBox="0 0 89.439 81.254"><path d="M89.277 5.673C90.777.023 81.445-.13 78.531.039c-6.318.366-8.518 2.817-13.181 7.48-4.038 4.038-9.202 9.45-13.24 13.488-3.833 3.5-6.477.543-9.787-1.471-3.152-2.638-6.337-5.153-9.379-8.195-2.781-2.781-6.959-5.813-9.667-8.667C17.11-3.827 0 5.839.194 11.506c.139 4.068 10.079 10.759 17.285 17.965 5.932 5.932 10.557 12.557 12.959 14.959-7.64 7.64-9.521 9.103-17.161 16.742-2.781 2.781-8.593 7.011-11.374 9.793-4.674 4.674.374 9.288 3.287 9.119 6.318-.366 14.684-2.427 19.347-7.09l12.698-12.698c.006-.006 4.577-4.492 6.035-3.034l13.299 13.299 8.344 8.344c2.287 2.287 9.12 3.906 12.697-.066 4.5-4.996 11.243-12.986 8.257-15.973-8.703-8.703-11.887-9.658-20.59-18.361-1.864-1.864-4.5-4.269-4.828-7.424 7.64-7.64 14.279-15.279 21.919-22.919 2.782-2.781 5.9-4.688 6.909-8.489z"/></svg>